<svg xmlns="http://www.w3.org/2000/svg" viewBox="0 0 120 120">
  <defs>
    <linearGradient id="bg" x1="0%" y1="0%" x2="100%" y2="100%">
      <stop offset="0%" stop-color="#1e1b4b"/>
      <stop offset="50%" stop-color="#4338ca"/>
      <stop offset="100%" stop-color="#7c3aed"/>
    </linearGradient>
  </defs>
  <rect width="120" height="120" rx="26" fill="url(#bg)"/>
  <g transform="translate(18, 18) scale(0.7)" fill="none" stroke="white" stroke-width="6" stroke-linecap="round" stroke-linejoin="round">
    <!-- Z letterform -->
    <line x1="20" y1="20" x2="75" y2="20"/>
    <line x1="75" y1="20" x2="20" y2="80"/>
    <line x1="20" y1="80" x2="60" y2="80"/>
    <!-- Stethoscope tube -->
    <path d="M75 20 C95 20, 100 35, 100 50"/>
    <!-- Stethoscope earpiece -->
    <circle cx="100" cy="50" r="6" fill="white" stroke="none"/>
    <circle cx="100" cy="50" r="3" fill="#4338ca" stroke="none"/>
    <!-- Heart -->
    <path d="M60 80 C60 72, 67 65, 75 65 C83 65, 90 72, 90 80 C90 95, 75 105, 60 115 C45 105, 30 95, 30 80 C30 72, 37 65, 45 65 C53 65, 60 72, 60 80 Z" fill="rgba(255,255,255,0.15)" stroke="white" stroke-width="5"/>
    <!-- Medical cross -->
    <line x1="60" y1="78" x2="60" y2="98" stroke-width="5"/>
    <line x1="50" y1="88" x2="70" y2="88" stroke-width="5"/>
  </g>
</svg>
